<svg xmlns="http://www.w3.org/2000/svg" xmlns:xlink="http://www.w3.org/1999/xlink" id="Layer_1" x="0px" y="0px" viewBox="0 0 512 512" style="enable-background:new 0 0 512 512;" xml:space="preserve"><style type="text/css">
	.st0{fill:#FFFFFF;}
</style><path class="st0" d="M463.9,307.7L322.3,166.2c-7.4-7.4-18.6-9.8-28.4-5.9c-56.1,21.9-102.3,19.5-141.2-7.5  c-10.5-7.2-24.6-5.9-33.7,3.1l-70,70c-7.1,7.1-11.1,16.6-11.1,26.7c0,10.1,3.9,19.6,11.1,26.7l221.6,221.6  c7.1,7.1,16.6,11.1,26.7,11.1s19.6-3.9,26.7-11.1l20-20c2.9-2.9,2.9-7.7,0-10.6s-7.7-2.9-10.6,0l-20,20c-4.3,4.3-10,6.7-16.1,6.7  c-6.1,0-11.8-2.4-16.1-6.7L59.7,268.7c-4.3-4.3-6.7-10-6.7-16.1c0-6.1,2.4-11.8,6.7-16.1l70-70c3.9-3.9,10-4.5,14.5-1.4  c4,2.8,8.1,5.3,12.2,7.6c0.4,5.8,2.9,11.3,7,15.5l35,35c4.7,4.7,11,7.1,17.2,7.1s12.4-2.4,17.2-7.1l35-35c1.4-1.4,2.7-3,3.7-4.8  c9-2.4,18.3-5.5,27.9-9.2c4.2-1.7,9.1-0.7,12.3,2.6l141.5,141.5c4.3,4.3,6.7,10,6.7,16.1c0,6.1-2.4,11.8-6.7,16.1l-94.8,94.8  c-2.9,2.9-2.9,7.7,0,10.6s7.7,2.9,10.6,0l94.8-94.8c7.1-7.1,11.1-16.6,11.1-26.7C474.9,324.4,471,314.9,463.9,307.7z M222.2,212.7  c-3.6,3.6-9.5,3.6-13.2,0L179.4,183c20.7,7,42.9,8.9,66.9,5.6L222.2,212.7z M186.2,269.9c9.5-9.5,9.5-24.9,0-34.4l-35-35  c-4.6-4.6-10.7-7.1-17.2-7.1s-12.6,2.5-17.2,7.1l-35,35c-9.5,9.5-9.5,24.9,0,34.4l35,35c4.7,4.7,11,7.1,17.2,7.1s12.4-2.4,17.2-7.1  L186.2,269.9C186.2,269.9,186.2,269.9,186.2,269.9z M175.6,259.3L175.6,259.3l-35,35c-3.6,3.6-9.5,3.6-13.2,0l-35-35  c-3.6-3.6-3.6-9.5,0-13.2l35-35c1.8-1.8,4.1-2.7,6.6-2.7s4.8,1,6.6,2.7l35,35C179.2,249.8,179.2,255.7,175.6,259.3z M351.8,106.3  L333,97c-4.7-2.3-10.2-2.1-14.6,0.7c-4.5,2.8-7.1,7.5-7.1,12.8v20.3c0,5.5,2.8,10.3,7.6,13.1c2.3,1.3,4.9,2,7.5,2  c2.6,0,5.2-0.7,7.6-2.1l18.7-11c4.8-2.8,7.6-8,7.4-13.5C359.9,113.7,356.7,108.7,351.8,106.3z M345.1,119.8l-18.8,11c0,0,0,0,0-0.1  l0.1-20.3L345.1,119.8C345.1,119.7,345.1,119.8,345.1,119.8z M319.6,334.4c0,6.5,2.5,12.6,7.1,17.2l35,35c4.6,4.6,10.7,7.1,17.2,7.1  c6.5,0,12.6-2.5,17.2-7.1l35-35c4.6-4.6,7.1-10.7,7.1-17.2s-2.5-12.6-7.1-17.2l-35-35c-9.5-9.5-24.9-9.5-34.4,0l-35,35  C322.1,321.8,319.6,327.9,319.6,334.4z M337.3,327.8l35-35c1.8-1.8,4.2-2.7,6.6-2.7c2.4,0,4.8,0.9,6.6,2.7l35,35  c1.8,1.8,2.7,4.1,2.7,6.6s-1,4.8-2.7,6.6l-35,35c-1.8,1.8-4.1,2.7-6.6,2.7c-2.5,0-4.8-1-6.6-2.7l-35-35c-1.8-1.8-2.7-4.1-2.7-6.6  S335.6,329.5,337.3,327.8z M352.3,57.1l7.1,18.2c2,5.2,6.5,8.8,11.9,9.8c0.9,0.2,1.8,0.2,2.8,0.2c4.5,0,8.8-1.9,11.8-5.4L400.6,63  c4-4.6,5-10.8,2.6-16.4c-2.3-5.6-7.5-9.2-13.6-9.6l-21.8-1.3c-5.4-0.3-10.4,2.1-13.6,6.4C351.1,46.5,350.4,52.1,352.3,57.1z   M366.4,51c0.2-0.3,0.5-0.3,0.6-0.3l21.8,1.3c0.2,0,0.4,0,0.6,0.4s0,0.6-0.1,0.7l-14.7,16.9c-0.1,0.1-0.3,0.3-0.6,0.2  c-0.4-0.1-0.5-0.3-0.5-0.4l-7.1-18.2C366.3,51.6,366.2,51.3,366.4,51z M198.5,386.6c4.6,4.6,10.7,7.1,17.2,7.1s12.6-2.5,17.2-7.1  l35-35c4.6-4.6,7.1-10.7,7.1-17.2s-2.5-12.6-7.1-17.2l-35-35c-9.5-9.5-24.9-9.5-34.4,0l-35,35c-9.5,9.5-9.5,24.9,0,34.4L198.5,386.6  z M174,327.8l35-35c1.8-1.8,4.2-2.7,6.6-2.7s4.8,0.9,6.6,2.7l35,35c1.8,1.8,2.7,4.1,2.7,6.6s-1,4.8-2.7,6.6l-35,35  c-1.8,1.8-4.1,2.7-6.6,2.7s-4.8-1-6.6-2.7l-35-35c-1.8-1.8-2.7-4.1-2.7-6.6S172.3,329.5,174,327.8z M314.5,200.5  c-4.6-4.6-10.7-7.1-17.2-7.1s-12.6,2.5-17.2,7.1l-35,35c-9.5,9.5-9.5,24.9,0,34.4l35,35c4.7,4.7,11,7.1,17.2,7.1s12.4-2.4,17.2-7.1  l35-35c9.5-9.5,9.5-24.9,0-34.4L314.5,200.5z M338.9,259.3l-35,35c-3.6,3.6-9.5,3.6-13.2,0l-35-35c-3.6-3.6-3.6-9.5,0-13.2l35-35  c1.8-1.8,4.1-2.7,6.6-2.7s4.8,1,6.6,2.7l35,35C342.5,249.8,342.5,255.7,338.9,259.3z M280.1,468.2c4.7,4.7,11,7.1,17.2,7.1  s12.4-2.4,17.2-7.1l35-35c4.6-4.6,7.1-10.7,7.1-17.2c0-6.5-2.5-12.6-7.1-17.2l-35-35c-4.6-4.6-10.7-7.1-17.2-7.1s-12.6,2.5-17.2,7.1  l-35,35c-4.6,4.6-7.1,10.7-7.1,17.2c0,6.5,2.5,12.6,7.1,17.2L280.1,468.2z M255.7,409.4l35-35c1.8-1.8,4.1-2.7,6.6-2.7  s4.8,1,6.6,2.7l35,35c1.8,1.8,2.7,4.1,2.7,6.6c0,2.5-1,4.8-2.7,6.6l-35,35c-3.6,3.6-9.5,3.6-13.2,0l-35-35c-1.8-1.8-2.7-4.1-2.7-6.6  C253,413.5,253.9,411.2,255.7,409.4z M203.3,121.2c3.5,3,7.9,4.6,12.4,4.6c1.1,0,2.2-0.1,3.2-0.3c7-1.2,13.7-2.8,20.2-4.9  c0.1,0,0.1,0,0.2-0.1c40.9-13.1,72.1-43.7,95-93.1c2.8-6,2.3-13-1.2-18.6c-3.6-5.6-9.6-8.9-16.3-8.9h-82.7  c-20.8,0-37.8,16.9-37.8,37.8v26.6c0,4.1,3.4,7.5,7.5,7.5s7.5-3.4,7.5-7.5V37.8c0-12.6,10.2-22.8,22.8-22.8h82.7c2,0,3.1,1.2,3.6,2  c0.4,0.6,1.2,2.2,0.3,4.2c-2.1,4.6-4.3,8.9-6.6,13.1c-4-2.9-8.9-4.5-14-4.5h-49.5c-13.4,0-24.3,10.9-24.3,24.3v49.5  c0,1.6,0.2,3.3,0.5,4.9c-3.4,0.9-6.9,1.6-10.4,2.2c-1.7,0.3-2.9-0.5-3.5-1c-0.6-0.5-1.5-1.6-1.5-3.3v-7.2c0-4.1-3.4-7.5-7.5-7.5  s-7.5,3.4-7.5,7.5v7.2C196.5,112.2,199,117.5,203.3,121.2z M241.4,54.1c0-5.1,4.2-9.3,9.3-9.3h49.5c2.4,0,4.7,1,6.4,2.6  c-17.6,27.7-39.1,46.4-65.2,56.5c0-0.1,0-0.2,0-0.3V54.1z"></path></svg>