<svg xmlns="http://www.w3.org/2000/svg" xmlns:xlink="http://www.w3.org/1999/xlink" id="Outline" x="0px" y="0px" viewBox="0 0 512 512" style="enable-background:new 0 0 512 512;" xml:space="preserve"><style type="text/css">
	.st0{fill:#FFFFFF;}
</style><path class="st0" d="M405.2,433.9L405.2,433.9l-56-48c-1.4-1.2-3.3-1.9-5.2-1.9h-8v-24c0-2.1-0.8-4.2-2.3-5.7l0,0l-3.9-3.9  c-16.6-16.5-25.8-38.9-25.8-62.2V219l14.4-16.5c26.8-30.6,41.6-69.9,41.6-110.6V88c0-39.7-32.3-72-72-72h-64c-39.7,0-72,32.3-72,72  v3.9c0,40.7,14.8,80,41.6,110.6L208,219v69.2c0.1,23.4-9.2,45.8-25.8,62.2l-3.9,3.9l0,0c-1.5,1.5-2.3,3.5-2.3,5.7v24h-8  c-1.9,0-3.8,0.7-5.2,1.9l-56,48l0,0c-1.8,1.5-2.8,3.7-2.8,6.1v48c0,4.4,3.6,8,8,8h288c4.4,0,8-3.6,8-8v-48  C408,437.7,407,435.4,405.2,433.9z M224,288.2V216c0-1.9-0.7-3.8-2-5.3L205.6,192C181.4,164.3,168,128.7,168,91.9V88  c0-30.9,25.1-56,56-56h64c30.9,0,56,25.1,56,56v3.9c0,36.8-13.4,72.4-37.6,100.1L290,210.7c-1.3,1.5-2,3.3-2,5.3v72.2  c-0.1,23.1,7.6,45.6,21.8,63.8H202.2C216.4,333.8,224.1,311.3,224,288.2z M192,368h128v16H192V368z M171,400H341l37.3,32H133.6  L171,400z M392,480H120v-32h272V480z"></path><path class="st0" d="M312,88v1.8c0,18.6-4.4,37-12.7,53.7l-2.5,5c-2,3.9-0.4,8.8,3.5,10.8c3.9,2,8.8,0.4,10.8-3.5c0,0,0-0.1,0.1-0.1  l2.5-5c9.4-18.9,14.3-39.7,14.4-60.8V88c0-22.1-17.9-40-40-40c-4.4,0-8,3.6-8,8s3.6,8,8,8C301.2,64,312,74.8,312,88z"></path></svg>