<svg version="1.1" id="Outline" xmlns="http://www.w3.org/2000/svg" xmlns:xlink="http://www.w3.org/1999/xlink" x="0px" y="0px" viewBox="0 0 512 512" style="enable-background:new 0 0 512 512;" xml:space="preserve"><style type="text/css">
	.st0{fill:#FFFFFF;}
</style><path class="st0" d="M464,144v-9.8l25.9-6.5c3.6-0.9,6.1-4.1,6.1-7.8V72c0-3.7-2.5-6.9-6.1-7.8L464,57.8V48c0-13.2-10.8-24-24-24H72
	c-13.2,0-24,10.8-24,24v9.8l-25.9,6.5C18.5,65.1,16,68.3,16,72v48c0,3.7,2.5,6.9,6.1,7.8l25.9,6.5v9.8c0,10.2,6.4,19.2,16,22.6V344
	H40c-13.2,0-24,10.8-24,24v64c0,13.2,10.8,24,24,24h9.8l6.5,25.9c0.9,3.6,4.1,6.1,7.8,6.1h48c3.7,0,6.9-2.5,7.8-6.1l6.5-25.9h259.5
	l6.5,25.9c0.9,3.6,4.1,6.1,7.8,6.1h48c3.7,0,6.9-2.5,7.8-6.1l6.5-25.9h9.8c13.2,0,24-10.8,24-24v-64c0-13.2-10.8-24-24-24h-24V166.6
	C457.6,163.2,464,154.2,464,144z M432,184h-80v-3.1l25.9-12.9H432V184z M384,200h16v32h-16V200z M480,78.2v35.5l-16,4V74.2L480,78.2
	z M64,48c0-4.4,3.6-8,8-8h368c4.4,0,8,3.6,8,8v96c0,4.4-3.6,8-8,8h-64c-1.2,0-2.5,0.3-3.6,0.8L342.1,168H169.9l-30.3-15.2
	c-1.1-0.6-2.3-0.8-3.6-0.8H72c-4.4,0-8-3.6-8-8V48z M208,256c0-10.2,6.4-19.2,16-22.6c0.3,7.6,3.3,14.8,8.5,20.3
	c-0.5,0.4-1,0.9-1.5,1.4c-2.5,2.5-4.5,5.6-5.7,9H208V256z M240,232c0-8.8,7.2-16,16-16c8.8,0,16,7.2,16,16s-7.2,16-16,16
	C247.2,248,240,240.8,240,232z M288,233.4c9.6,3.4,16,12.5,16,22.6v8h-17.4c-1.2-3.4-3.1-6.5-5.7-9c-0.5-0.5-1-0.9-1.5-1.3
	C284.7,248.1,287.6,240.9,288,233.4z M304,216h-20.3c-8.8-15.3-28.4-20.5-43.7-11.7c-4.9,2.8-8.9,6.9-11.7,11.7H208v-32h96V216z
	 M96,168v24c0,4.4-3.6,8-8,8c-2.7,0-5.4,0.5-8,1.4V168H96z M32,113.8V78.2l16-4v43.5L32,113.8z M88,216c13.2,0,24-10.8,24-24v-24h16
	v24c0,13.2,10.8,24,24,24c4.4,0,8,3.6,8,8v8H80v-8C80,219.6,83.6,216,88,216z M105.8,472H70.2l-4-16h43.5L105.8,472z M172.9,440
	l8-16h150.1l8,16H172.9z M441.8,472h-35.5l-4-16h43.5L441.8,472z M480,368v64c0,4.4-3.6,8-8,8H356.9l-13.8-27.6
	c-1.4-2.7-4.1-4.4-7.2-4.4H176c-3,0-5.8,1.7-7.2,4.4L155.1,440H40c-4.4,0-8-3.6-8-8v-64c0-4.4,3.6-8,8-8h432
	C476.4,360,480,363.6,480,368z M80,344v-96h88c4.4,0,8-3.6,8-8v-16c0-13.2-10.8-24-24-24c-4.4,0-8-3.6-8-8v-19.1l20.4,10.2
	c1.1,0.6,2.3,0.8,3.6,0.8h24v40c0,4.4,3.6,8,8,8h0c-5.2,6.9-8,15.3-8,24v16c0,4.4,3.6,8,8,8h32c4.4,0,8-3.6,8-8c0-4.4,3.5-8,8-8
	c0,0,0,0,0,0h16c4.4,0,8,3.6,8,8c0,0,0,0,0,0c0,4.4,3.6,8,8,8h32c4.4,0,8-3.6,8-8v-16c0-8.7-2.8-17.1-8-24h0c4.4,0,8-3.6,8-8v-40h16
	v8c0,4.4,3.6,8,8,8h24v40c0,4.4,3.6,8,8,8h32c4.4,0,8-3.6,8-8v-40h16v144H80z"></path><path class="st0" d="M104,104h64c4.4,0,8-3.6,8-8V64c0-4.4-3.6-8-8-8h-64c-4.4,0-8,3.6-8,8v32C96,100.4,99.6,104,104,104z M112,72
	h48v16h-48V72z"></path><path class="st0" d="M256,152c26.5,0,48-21.5,48-48s-21.5-48-48-48s-48,21.5-48,48C208,130.5,229.5,152,256,152z M248,73v31
	c0,4.4,3.6,8,8,8s8-3.6,8-8V73c17.1,4.4,27.4,21.9,23,39s-21.9,27.4-39,23c-17.1-4.4-27.4-21.9-23-39C227.9,84.7,236.7,75.9,248,73z
	"></path><path class="st0" d="M408,120c13.3,0,24-10.7,24-24s-10.7-24-24-24s-24,10.7-24,24C384,109.2,394.8,120,408,120z M408,88
	c4.4,0,8,3.6,8,8s-3.6,8-8,8s-8-3.6-8-8C400,91.6,403.6,88,408,88z"></path><path class="st0" d="M344,120c13.3,0,24-10.7,24-24s-10.7-24-24-24s-24,10.7-24,24C320,109.2,330.8,120,344,120z M344,88
	c4.4,0,8,3.6,8,8s-3.6,8-8,8s-8-3.6-8-8C336,91.6,339.6,88,344,88z"></path><circle class="st0" cx="104" cy="128" r="8"></circle><circle class="st0" cx="136" cy="128" r="8"></circle><circle class="st0" cx="168" cy="128" r="8"></circle></svg>