<svg xmlns="http://www.w3.org/2000/svg" xmlns:xlink="http://www.w3.org/1999/xlink" id="Outline" x="0px" y="0px" viewBox="0 0 512 512" style="enable-background:new 0 0 512 512;" xml:space="preserve"><style type="text/css">
	.st0{fill:#FFFFFF;}
</style><path class="st0" d="M492.2,89.2c-2.4-1.5-5.3-1.6-7.8-0.3L262.7,199.7c4.3-12.5-2.5-26.2-15-30.4c-2.5-0.8-5.1-1.3-7.7-1.3h-64  c-1.2,0-2.5,0.3-3.6,0.8L144,183.1l-28.4-14.2c-1.1-0.6-2.3-0.8-3.6-0.8H48c-13.3,0-24,10.7-24,24c0,10.6,6.9,19.9,17,23l6.7,40.4  l-31.4,94.1c-0.3,0.8-0.4,1.7-0.4,2.5c0,39.7,32.3,72,72,72h112c39.7,0,72-32.3,72-72c0-0.9-0.1-1.7-0.4-2.5l-29.8-89.4l249.8-124.9  c2.7-1.4,4.4-4.1,4.4-7.2V96C496,93.2,494.6,90.7,492.2,89.2z M62.8,248l-5.3-32h52.7l30.3,15.2c2.3,1.1,4.9,1.1,7.2,0l30.3-15.2  h52.7l-5.3,32H62.8z M48,184h62.1l30.3,15.2c2.3,1.1,4.9,1.1,7.2,0l30.3-15.2H240c4.4,0,8,3.6,8,8s-3.6,8-8,8h-64  c-1.2,0-2.5,0.3-3.6,0.8L144,215.1l-28.4-14.2c-1.1-0.6-2.3-0.8-3.6-0.8H48c-4.4,0-8-3.6-8-8S43.6,184,48,184z M200,408H88  c-30.4,0-55.3-24.3-56-54.7L61.8,264h164.5l29.8,89.3C255.3,383.7,230.4,408,200,408z M480,123.1L242.5,241.8l2.6-15.4l235-117.5  V123.1z"></path><path class="st0" d="M221.5,320.4c-4.2,1.4-6.5,5.9-5.1,10.1c0,0,0,0,0,0l7.6,22.7c-0.7,12.8-11.2,22.8-24,22.8c-4.4,0-8,3.6-8,8  s3.6,8,8,8c22.1,0,40-17.9,40-40c0-0.9-0.1-1.7-0.4-2.5l-8-24C230.2,321.3,225.7,319,221.5,320.4z"></path><path class="st0" d="M168,376h-16c-4.4,0-8,3.6-8,8s3.6,8,8,8h16c4.4,0,8-3.6,8-8S172.4,376,168,376z"></path></svg>